<svg width="238" height="157" viewBox="0 0 238 157" fill="none" xmlns="http://www.w3.org/2000/svg">
<g id="img-step 3">
<g id="Group 28">
<g id="Clip path group">
<mask id="mask0_9_260" style="mask-type:luminance" maskUnits="userSpaceOnUse" x="0" y="0" width="238" height="157">
<g id="clip-path-14">
<path id="Rectangle 13" d="M237.766 0H0V156.968H237.766V0Z" fill="white"/>
</g>
</mask>
<g mask="url(#mask0_9_260)">
<g id="Group 27">
<path id="Path 51" d="M16.334 0H233.507C234.636 -3.11312e-08 235.72 0.448577 236.518 1.24708C237.317 2.04558 237.766 3.12862 237.766 4.258V61.036C237.766 62.1654 237.317 63.2484 236.518 64.0469C235.72 64.8454 234.636 65.294 233.507 65.294H16.334C15.2047 65.294 14.1217 64.8454 13.3231 64.0469C12.5246 63.2483 12.076 62.1653 12.076 61.036V4.258C12.076 3.12871 12.5246 2.04567 13.3231 1.24714C14.1217 0.448609 15.2047 0 16.334 0Z" fill="#D34B44"/>
<path id="Path 52" d="M43.668 51.8661C43.2916 51.8661 42.9307 51.7166 42.6646 51.4504C42.3985 51.1843 42.249 50.8234 42.249 50.4471V47.6081C42.249 46.4785 41.8003 45.3952 41.0016 44.5965C40.2028 43.7978 39.1195 43.3491 37.99 43.3491H26.635C25.5054 43.3491 24.4221 43.7978 23.6234 44.5965C22.8247 45.3952 22.376 46.4785 22.376 47.6081V50.4471C22.376 50.8235 22.2264 51.1846 21.9602 51.4508C21.694 51.717 21.333 51.8666 20.9565 51.8666C20.58 51.8666 20.219 51.717 19.9527 51.4508C19.6865 51.1846 19.537 50.8235 19.537 50.4471V47.6081C19.537 45.725 20.285 43.9191 21.6165 42.5876C22.948 41.2561 24.7539 40.5081 26.637 40.5081H37.99C39.873 40.5081 41.6789 41.2561 43.0104 42.5876C44.342 43.9191 45.09 45.725 45.09 47.6081V50.4471C45.09 50.8234 44.9405 51.1843 44.6744 51.4504C44.4083 51.7166 44.0473 51.8661 43.671 51.8661" fill="#111111"/>
<path id="Path 53" d="M32.312 37.671C30.9077 37.671 29.535 37.2545 28.3674 36.4744C27.1998 35.6942 26.2898 34.5854 25.7524 33.288C25.2151 31.9906 25.0744 30.5631 25.3484 29.1858C25.6224 27.8085 26.2986 26.5434 27.2915 25.5505C28.2845 24.5575 29.5496 23.8813 30.9268 23.6074C32.3041 23.3334 33.7317 23.474 35.029 24.0114C36.3264 24.5488 37.4353 25.4588 38.2154 26.6264C38.9956 27.794 39.412 29.1667 39.412 30.571C39.4104 32.4535 38.6618 34.2585 37.3307 35.5897C35.9995 36.9208 34.1945 37.6694 32.312 37.671ZM32.312 26.316C31.4698 26.316 30.6465 26.5657 29.9463 27.0336C29.246 27.5015 28.7003 28.1666 28.378 28.9447C28.0558 29.7228 27.9715 30.579 28.1359 31.405C28.3002 32.231 28.7059 32.9897 29.3015 33.5852C29.8971 34.1806 30.6559 34.5861 31.4819 34.7503C32.3079 34.9144 33.1641 34.83 33.9421 34.5075C34.7202 34.1851 35.3851 33.6392 35.8529 32.9388C36.3206 32.2385 36.5702 31.4151 36.57 30.573C36.5684 29.4442 36.1192 28.3622 35.321 27.5642C34.5228 26.7662 33.4407 26.3173 32.312 26.316Z" fill="#111111"/>
<path id="Path 54" d="M72.1 43.1771C71.9273 43.1765 71.7556 43.1516 71.59 43.1031L71.07 43.0291C70.8667 42.9808 70.6776 42.8856 70.5178 42.751C70.358 42.6164 70.2321 42.4462 70.15 42.2541C69.9184 41.6865 69.9184 41.0507 70.15 40.4831C70.4873 39.5496 70.8813 38.6375 71.33 37.7521C71.43 37.5521 71.52 37.3331 71.62 37.0871C71.7416 36.8594 71.8518 36.6258 71.95 36.3871C71.5767 36.5429 71.2294 36.7547 70.92 37.0151C70.58 37.2851 70.22 37.5681 69.85 37.8631C69.6151 38.0314 69.3278 38.1102 69.04 38.0851C68.7401 38.0463 68.4638 37.9024 68.26 37.6791C68.177 37.5627 68.1184 37.4309 68.0874 37.2914C68.0565 37.1519 68.054 37.0076 68.08 36.8671C68.1035 36.572 68.2353 36.2959 68.45 36.0921C68.79 35.8461 69.15 35.5751 69.52 35.2801C69.8905 34.9993 70.2854 34.7523 70.7 34.5421C71.5345 34.0492 72.5291 33.9034 73.47 34.1361C73.6669 34.1751 73.8508 34.2632 74.0046 34.3922C74.1585 34.5212 74.2772 34.687 74.35 34.8741C74.4492 35.1084 74.4978 35.3609 74.4926 35.6153C74.4874 35.8696 74.4286 36.12 74.32 36.3501C74.0248 37.1714 73.6774 37.973 73.28 38.7501C73.16 39.0451 73.02 39.3411 72.88 39.6361C72.74 39.9311 72.63 40.2141 72.51 40.4851C72.4863 40.5761 72.4492 40.663 72.4 40.7431C72.37 40.8171 72.35 40.8911 72.32 40.9641C73.1004 40.8044 73.8567 40.5439 74.57 40.1891C76.0212 39.4335 77.3831 38.5174 78.63 37.4581C79.54 36.7451 80.37 36.0581 81.11 35.3921C81.85 34.7034 82.44 34.1368 82.88 33.6921L83.54 33.0281C83.6608 32.8673 83.8292 32.7487 84.0213 32.6892C84.2134 32.6296 84.4194 32.632 84.61 32.6961C84.7032 32.7048 84.7937 32.7321 84.8761 32.7765C84.9586 32.8208 85.0313 32.8812 85.09 32.9541C85.2047 33.0644 85.3054 33.1883 85.39 33.3231C85.475 33.5141 85.5215 33.7201 85.5266 33.9291C85.5318 34.1381 85.4955 34.3461 85.42 34.5411C85.1913 35.2815 84.9209 36.0083 84.61 36.7181C84.47 37.0381 84.32 37.3581 84.17 37.6781C84.05 37.9981 83.92 38.2931 83.8 38.5641C83.78 38.6641 83.75 38.7481 83.73 38.8221C83.726 38.8735 83.7124 38.9237 83.69 38.9701C84.2175 38.8729 84.7206 38.672 85.17 38.3791C85.7108 38.0317 86.2286 37.6495 86.72 37.2351C87.23 36.8171 87.66 36.4604 88.01 36.1651C88.1151 36.0593 88.242 35.9776 88.3819 35.9258C88.5218 35.874 88.6713 35.8533 88.82 35.8651C89.1161 35.8896 89.3932 36.0207 89.6 36.2341C89.7874 36.4606 89.8774 36.7523 89.85 37.0451C89.8497 37.1936 89.8164 37.3403 89.7524 37.4743C89.6884 37.6084 89.5953 37.7265 89.48 37.8201C88.72 38.4851 87.93 39.1121 87.12 39.7031C86.3918 40.2647 85.5826 40.7125 84.72 41.0311C83.948 41.3017 83.1136 41.3403 82.32 41.1421C81.9635 40.9999 81.6669 40.7393 81.48 40.4041C81.3278 40.0432 81.276 39.648 81.33 39.2601C81.4323 38.7319 81.5795 38.2133 81.77 37.7101C81.499 37.9581 81.2153 38.1917 80.92 38.4101C80.65 38.6311 80.36 38.8771 80.04 39.1481C76.64 41.8301 74 43.1711 72.1 43.1711M91.74 43.1711C91.5673 43.1705 91.3957 43.1456 91.23 43.0971L90.71 43.0231C90.5067 42.9748 90.3176 42.8796 90.1578 42.745C89.998 42.6104 89.8721 42.4402 89.79 42.2481C89.5685 41.6785 89.5685 41.0466 89.79 40.4771C90.1273 39.5436 90.5213 38.6315 90.97 37.7461C91.0798 37.5304 91.1766 37.3083 91.26 37.0811C91.39 36.8351 91.5 36.6021 91.6 36.3811C91.2235 36.5365 90.8728 36.7483 90.56 37.0091C90.22 37.2791 89.86 37.5621 89.49 37.8571C89.2563 38.0278 88.9681 38.1068 88.68 38.0791C88.3823 38.0425 88.1083 37.8981 87.91 37.6731C87.8235 37.5585 87.7618 37.427 87.7291 37.2872C87.6964 37.1473 87.6933 37.0022 87.72 36.8611C87.7477 36.5671 87.8788 36.2925 88.09 36.0861C88.43 35.8401 88.79 35.5691 89.16 35.2741C89.5305 34.9933 89.9254 34.7463 90.34 34.5361C91.1745 34.0432 92.1691 33.8974 93.11 34.1301C93.3076 34.1702 93.4923 34.2586 93.6476 34.3874C93.8029 34.5161 93.9239 34.6813 94 34.8681C94.0948 35.1037 94.1401 35.3563 94.1333 35.6102C94.1264 35.8641 94.0674 36.1139 93.96 36.3441C93.6646 37.1638 93.3207 37.9653 92.93 38.7441C92.8 39.0391 92.67 39.3351 92.52 39.6301C92.4 39.9301 92.27 40.2081 92.15 40.4791C92.1307 40.5715 92.0933 40.6592 92.04 40.7371C92.0123 40.8093 91.9889 40.8831 91.97 40.9581C92.7496 40.7953 93.5055 40.535 94.22 40.1831C95.6698 39.4251 97.0314 38.5092 98.28 37.4521C99.19 36.7391 100.01 36.0521 100.75 35.3861C101.49 34.6974 102.08 34.1308 102.52 33.6861L103.18 33.0221C103.301 32.8619 103.47 32.7438 103.662 32.6843C103.854 32.6247 104.059 32.6268 104.25 32.6901C104.343 32.6988 104.434 32.7261 104.516 32.7705C104.599 32.8148 104.671 32.8752 104.73 32.9481C104.952 33.1391 105.106 33.3977 105.167 33.6843C105.229 33.9709 105.195 34.2698 105.07 34.5351C104.94 34.9781 104.67 35.7041 104.25 36.7121C104.11 37.0321 103.96 37.3521 103.81 37.6721C103.69 37.9921 103.57 38.2871 103.44 38.5581C103.42 38.6581 103.39 38.7421 103.37 38.8161C103.371 38.8682 103.357 38.9195 103.33 38.9641C103.858 38.8669 104.361 38.666 104.81 38.3731C105.353 38.0281 105.87 37.6459 106.36 37.2291C106.88 36.8111 107.31 36.4544 107.65 36.1591C107.756 36.0546 107.883 35.9738 108.023 35.9221C108.162 35.8704 108.311 35.8489 108.46 35.8591C108.757 35.8811 109.035 36.0126 109.24 36.2281C109.426 36.4559 109.519 36.7456 109.5 37.0391C109.497 37.1872 109.463 37.3331 109.399 37.4668C109.335 37.6005 109.244 37.719 109.13 37.8141C108.36 38.4791 107.58 39.1061 106.76 39.6971C106.034 40.2565 105.228 40.7041 104.37 41.0251C103.598 41.295 102.764 41.3336 101.97 41.1361C101.609 40.997 101.308 40.7359 101.12 40.3981C100.968 40.0372 100.916 39.642 100.97 39.2541C101.072 38.7259 101.22 38.2073 101.41 37.7041C101.139 37.9521 100.855 38.1857 100.56 38.4041C100.29 38.6251 100 38.8711 99.68 39.1421C96.28 41.8241 93.64 43.1651 91.74 43.1651M111.39 43.1651C111.214 43.1653 111.039 43.1403 110.87 43.0911L110.35 43.0171C110.147 42.9688 109.958 42.8736 109.798 42.739C109.638 42.6044 109.512 42.4342 109.43 42.2421C109.208 41.6725 109.208 41.0406 109.43 40.4711C109.772 39.5393 110.166 38.6275 110.61 37.7401C110.71 37.5401 110.81 37.3184 110.91 37.0751C111.03 36.8291 111.14 36.5961 111.24 36.3751C110.866 36.5286 110.518 36.7406 110.21 37.0031C109.86 37.2731 109.5 37.5558 109.13 37.8511C108.896 38.0218 108.608 38.1008 108.32 38.0731C108.022 38.0365 107.748 37.892 107.55 37.6671C107.466 37.5513 107.405 37.4198 107.373 37.2803C107.34 37.1409 107.336 36.9963 107.36 36.8551C107.388 36.5611 107.519 36.2865 107.73 36.0801C108.08 35.8341 108.43 35.5631 108.8 35.2681C109.172 34.9895 109.567 34.7426 109.98 34.5301C110.814 34.0372 111.809 33.8914 112.75 34.1241C112.948 34.1628 113.134 34.2507 113.289 34.3796C113.445 34.5085 113.565 34.6744 113.64 34.8621C113.735 35.0977 113.78 35.3503 113.773 35.6042C113.766 35.8581 113.707 36.1079 113.6 36.3381C113.305 37.1578 112.961 37.9593 112.57 38.7381C112.44 39.0331 112.31 39.3291 112.16 39.6241C112.04 39.9241 111.91 40.2021 111.79 40.4731C111.771 40.5655 111.733 40.6532 111.68 40.7311C111.66 40.8051 111.63 40.8791 111.61 40.9521C112.39 40.7893 113.146 40.529 113.86 40.1771C115.31 39.4191 116.671 38.5032 117.92 37.4461C118.83 36.7331 119.65 36.0461 120.39 35.3801C121.13 34.6914 121.72 34.1248 122.16 33.6801C122.61 33.2371 122.83 33.0161 122.83 33.0161C122.95 32.8549 123.119 32.7359 123.311 32.6763C123.503 32.6166 123.709 32.6194 123.9 32.6841C124.087 32.7064 124.258 32.7986 124.38 32.9421C124.492 33.0524 124.589 33.1764 124.67 33.3111C124.757 33.5014 124.805 33.707 124.812 33.9161C124.819 34.1251 124.784 34.3335 124.71 34.5291C124.481 35.2695 124.211 35.9963 123.9 36.7061L123.45 37.6661C123.33 37.9861 123.21 38.2811 123.08 38.5521C123.064 38.64 123.041 38.7264 123.01 38.8101C123.011 38.8622 122.997 38.9135 122.97 38.9581C123.498 38.8609 124.001 38.66 124.45 38.3671C124.992 38.026 125.51 37.6477 126 37.2351C126.52 36.8171 126.95 36.4604 127.29 36.1651C127.396 36.0606 127.523 35.9798 127.663 35.9281C127.802 35.8764 127.951 35.8549 128.1 35.8651C128.397 35.8871 128.675 36.0186 128.88 36.2341C129.07 36.4596 129.164 36.751 129.14 37.0451C129.137 37.1932 129.103 37.3391 129.039 37.4728C128.975 37.6065 128.884 37.725 128.77 37.8201C128.01 38.4851 127.22 39.1121 126.41 39.7031C125.679 40.2607 124.871 40.7081 124.01 41.0311C123.238 41.301 122.404 41.3396 121.61 41.1421C121.251 40.9998 120.951 40.7395 120.76 40.4041C120.608 40.0432 120.556 39.648 120.61 39.2601C120.716 38.7318 120.867 38.2133 121.06 37.7101C120.78 37.9561 120.5 38.1901 120.21 38.4101C119.94 38.6311 119.64 38.8771 119.32 39.1481C115.93 41.8301 113.28 43.1711 111.39 43.1711M136.49 41.0711C136.22 41.0805 135.956 40.9884 135.75 40.8131C135.566 40.677 135.433 40.4826 135.373 40.2615C135.313 40.0404 135.33 39.8056 135.42 39.5951C135.42 39.5701 135.51 39.2751 135.68 38.7091C135.87 38.1431 136.1 37.5091 136.34 36.7901C136.47 36.3721 136.58 36.0154 136.67 35.7201C136.77 35.4001 136.86 35.1201 136.93 34.8711C136.27 35.1171 135.46 35.4248 134.5 35.7941C133.54 36.1381 132.53 36.5071 131.47 36.9011C130.44 37.2951 129.43 37.6764 128.44 38.0451C128.309 38.0938 128.17 38.1157 128.031 38.1093C127.892 38.1029 127.756 38.0685 127.63 38.0081C127.348 37.871 127.127 37.6345 127.01 37.3441C126.96 37.2122 126.94 37.0707 126.952 36.9301C126.964 36.7894 127.008 36.6534 127.08 36.5321C127.136 36.3895 127.221 36.2601 127.329 36.152C127.438 36.0439 127.567 35.9595 127.71 35.9041C128.81 35.5111 129.96 35.1041 131.14 34.6871C132.32 34.2441 133.41 33.8381 134.42 33.4691C135.43 33.0751 136.26 32.7551 136.9 32.5091L137.86 32.1401C137.978 32.1154 138.099 32.103 138.22 32.1031C138.334 32.0773 138.454 32.0903 138.56 32.1401C138.725 32.1611 138.88 32.2275 139.009 32.3319C139.138 32.4362 139.235 32.5745 139.29 32.7311C139.428 32.9644 139.481 33.2382 139.44 33.5061C139.422 33.9412 139.361 34.3735 139.26 34.7971C139.18 35.1171 139.09 35.4741 138.96 35.8681C138.86 36.2371 138.73 36.6681 138.56 37.1591C138.53 37.2591 138.51 37.3441 138.48 37.4181C138.45 37.4921 138.43 37.5771 138.41 37.6761C139.585 37.0434 140.793 36.4759 142.03 35.9761C142.156 35.9154 142.295 35.8838 142.435 35.8838C142.575 35.8838 142.714 35.9154 142.84 35.9761C142.975 36.016 143.098 36.0868 143.201 36.183C143.303 36.2792 143.382 36.3981 143.43 36.5301C143.503 36.6585 143.545 36.8023 143.552 36.9498C143.558 37.0973 143.531 37.2444 143.47 37.3791C143.36 37.6586 143.144 37.8837 142.87 38.0061C141.77 38.4981 140.77 38.9661 139.89 39.4061C139.01 39.8461 138.34 40.2061 137.82 40.4771L137.04 40.8831C136.885 41.0099 136.69 41.0754 136.49 41.0671M147.07 43.2451C146.946 43.2447 146.822 43.2323 146.7 43.2081C146.563 43.2064 146.425 43.194 146.29 43.1711C145.979 43.0571 145.719 42.834 145.56 42.5431C145.448 42.2876 145.397 42.0097 145.41 41.7311C145.452 41.1533 145.563 40.5826 145.74 40.0311C145.96 39.2431 146.32 38.0751 146.81 36.5251C146.27 36.7251 145.64 36.9551 144.93 37.2251C144.24 37.4961 143.53 37.7661 142.79 38.0371C142.659 38.0858 142.52 38.1077 142.381 38.1013C142.242 38.0949 142.106 38.0605 141.98 38.0001C141.693 37.8665 141.468 37.6292 141.35 37.3361C141.302 37.2038 141.283 37.0626 141.296 36.9224C141.308 36.7822 141.35 36.6463 141.42 36.5241C141.539 36.2398 141.765 36.014 142.05 35.8961C143.11 35.5031 144.09 35.1341 145 34.7891C145.94 34.4451 146.7 34.1621 147.29 33.9401L148.18 33.6081C148.436 33.5092 148.72 33.5071 148.978 33.6023C149.235 33.6974 149.449 33.8833 149.58 34.1251C149.636 34.2113 149.675 34.3079 149.694 34.4091C149.713 34.5104 149.711 34.6143 149.69 34.7151C149.666 34.902 149.629 35.087 149.58 35.2691C149.526 35.3734 149.489 35.4854 149.47 35.6011C149.44 35.7011 149.41 35.8231 149.36 35.9701C149.19 36.3881 149 36.9051 148.8 37.5201C148.63 38.1111 148.45 38.7141 148.25 39.3291C148.13 39.6731 148.03 39.9681 147.96 40.2141C147.89 40.4601 147.82 40.6821 147.77 40.8791C148.479 40.6818 149.161 40.3966 149.8 40.0301C150.56 39.6121 151.38 39.1301 152.24 38.5911C153.12 38.0251 154.02 37.4341 154.93 36.8191C155.13 36.6961 155.32 36.5731 155.52 36.4501C155.73 36.3353 155.928 36.1992 156.11 36.0441C156.233 35.9611 156.373 35.9051 156.519 35.8796C156.666 35.8541 156.816 35.8597 156.96 35.8961C157.111 35.9159 157.256 35.9693 157.384 36.0523C157.512 36.1354 157.62 36.246 157.7 36.3761C157.783 36.4922 157.839 36.6251 157.865 36.7654C157.891 36.9057 157.886 37.05 157.85 37.1881C157.826 37.3328 157.771 37.4706 157.688 37.5915C157.605 37.7125 157.496 37.8138 157.37 37.8881C157.17 38.0361 156.96 38.1838 156.74 38.3311C156.54 38.4541 156.33 38.5901 156.11 38.7371C155.18 39.3518 154.27 39.9424 153.38 40.5091C152.49 41.0741 151.66 41.5671 150.87 41.9851C149.714 42.6833 148.415 43.1122 147.07 43.2401M165.21 41.0621C164.943 41.0714 164.682 40.9792 164.48 40.8041C164.293 40.6705 164.157 40.4767 164.095 40.2551C164.033 40.0335 164.049 39.7974 164.14 39.5861C164.14 39.5611 164.23 39.2661 164.4 38.7001C164.6 38.1341 164.82 37.5001 165.07 36.7811C165.19 36.3631 165.3 36.0064 165.4 35.7111C165.5 35.3911 165.58 35.1111 165.66 34.8621C164.99 35.1081 164.18 35.4161 163.22 35.7851C162.26 36.1291 161.25 36.4981 160.19 36.8921C159.16 37.2861 158.15 37.6671 157.17 38.0361C157.039 38.0848 156.9 38.1067 156.761 38.1003C156.622 38.0939 156.486 38.0595 156.36 37.9991C156.073 37.8655 155.848 37.6282 155.73 37.3351C155.682 37.2028 155.663 37.0616 155.676 36.9214C155.688 36.7812 155.73 36.6453 155.8 36.5231C155.919 36.2388 156.145 36.013 156.43 35.8951L159.86 34.6781C161.04 34.2351 162.14 33.8291 163.15 33.4601C164.16 33.0661 164.98 32.7461 165.62 32.5001L166.58 32.1311C166.702 32.1064 166.826 32.094 166.95 32.0941C167.061 32.0689 167.177 32.0819 167.28 32.1311C167.446 32.1518 167.603 32.2179 167.733 32.3222C167.864 32.4265 167.963 32.5649 168.02 32.7221C168.148 32.9589 168.201 33.2295 168.17 33.4971C168.147 33.9324 168.083 34.3646 167.98 34.7881C167.91 35.1081 167.81 35.4651 167.69 35.8591C167.59 36.2281 167.45 36.6591 167.28 37.1501C167.26 37.2501 167.23 37.3351 167.21 37.4091C167.19 37.4831 167.16 37.5681 167.13 37.6671C168.305 37.0363 169.514 36.4688 170.75 35.9671C170.876 35.9064 171.015 35.8748 171.155 35.8748C171.295 35.8748 171.434 35.9064 171.56 35.9671C171.695 36.0056 171.82 36.0759 171.922 36.1723C172.025 36.2687 172.103 36.3883 172.15 36.5211C172.223 36.6495 172.265 36.7933 172.272 36.9408C172.278 37.0883 172.251 37.2354 172.19 37.3701C172.084 37.6488 171.872 37.8741 171.6 37.9971C170.49 38.4891 169.5 38.9571 168.61 39.3971C167.75 39.8404 167.06 40.1974 166.54 40.4681C166.03 40.7381 165.77 40.8741 165.77 40.8741C165.612 41.001 165.413 41.0663 165.21 41.0581M184.1 40.7001C183.937 40.7015 183.775 40.6765 183.62 40.6261C183.395 40.5821 183.184 40.4809 183.009 40.3322C182.834 40.1835 182.7 39.9924 182.62 39.7771C182.475 39.3137 182.514 38.8122 182.73 38.3771C182.98 37.8598 183.3 37.2818 183.69 36.6431C183.84 36.4211 183.97 36.2001 184.1 35.9781C184.25 35.7321 184.37 35.5111 184.47 35.3141C184.52 35.2401 184.55 35.1791 184.58 35.1291C184.599 35.0663 184.623 35.0048 184.65 34.9451C183.796 34.8182 182.93 34.7933 182.07 34.8711C180.971 34.9438 179.881 35.1294 178.82 35.4251C177.76 35.6951 176.62 36.0521 175.39 36.4951C174.18 36.9131 172.9 37.4174 171.55 38.0081C171.289 38.106 171.001 38.106 170.74 38.0081C170.608 37.962 170.488 37.8888 170.386 37.7934C170.285 37.698 170.204 37.5824 170.15 37.4541C170.077 37.3258 170.036 37.1822 170.029 37.0349C170.022 36.8875 170.049 36.7406 170.11 36.6061C170.155 36.464 170.232 36.3339 170.334 36.2253C170.436 36.1166 170.561 36.0322 170.7 35.9781C172.08 35.3631 173.39 34.8341 174.65 34.3911C175.834 33.9523 177.043 33.5826 178.27 33.2841C180.67 32.5436 183.218 32.4167 185.68 32.9151C185.947 32.9777 186.195 33.1044 186.403 33.2844C186.61 33.4644 186.77 33.6922 186.87 33.9481C186.977 34.2426 187.019 34.5567 186.993 34.869C186.967 35.1813 186.874 35.4843 186.72 35.7571C186.376 36.467 185.992 37.1568 185.57 37.8231C185.539 37.8881 185.502 37.9501 185.46 38.0081C185.405 38.089 185.358 38.1755 185.32 38.2661C185.88 38.1431 186.72 37.8971 187.82 37.5281C188.92 37.1591 190.46 36.6181 192.4 35.9041C192.532 35.8556 192.673 35.8371 192.813 35.8499C192.953 35.8627 193.089 35.9065 193.21 35.9781C193.478 36.1029 193.688 36.3251 193.797 36.5993C193.907 36.8735 193.908 37.1792 193.8 37.4541C193.736 37.5924 193.645 37.7161 193.531 37.8178C193.418 37.9194 193.284 37.9967 193.14 38.0451C192.01 38.4391 190.97 38.7951 190.04 39.1151C189.11 39.4351 188.27 39.7061 187.53 39.9271C186.55 40.2218 185.8 40.4308 185.28 40.5541C184.892 40.6375 184.497 40.6871 184.1 40.7021" fill="#111111"/>
<path id="Path 55" d="M5.67798 90.2549H222.851C223.41 90.2548 223.964 90.3648 224.481 90.5787C224.997 90.7926 225.467 91.1063 225.862 91.5017C226.258 91.8971 226.572 92.3665 226.786 92.8832C227 93.3999 227.11 93.9536 227.11 94.5129V151.291C227.11 152.42 226.661 153.503 225.862 154.302C225.064 155.1 223.98 155.549 222.851 155.549H5.67798C5.11881 155.549 4.56512 155.439 4.04852 155.225C3.53191 155.011 3.06251 154.697 2.66712 154.302C2.27173 153.906 1.95809 153.437 1.7441 152.92C1.53012 152.404 1.41998 151.85 1.41998 151.291V94.5129C1.41998 93.3836 1.86859 92.3006 2.66712 91.502C3.46565 90.7035 4.54869 90.2549 5.67798 90.2549Z" fill="white"/>
<path id="Path 56" d="M222.851 156.968H5.678C4.17259 156.966 2.72929 156.368 1.6648 155.303C0.600314 154.239 0.00158827 152.795 0 151.29L0 94.5129C0.00158871 93.0076 0.600347 91.5644 1.66486 90.5001C2.72938 89.4358 4.17268 88.8373 5.678 88.8359H222.851C224.356 88.8373 225.8 89.4358 226.864 90.5001C227.929 91.5644 228.527 93.0076 228.529 94.5129V151.29C228.527 152.795 227.929 154.239 226.864 155.303C225.8 156.368 224.356 156.966 222.851 156.968ZM5.678 91.6739C4.92529 91.6747 4.20364 91.9741 3.6714 92.5063C3.13916 93.0386 2.83979 93.7602 2.839 94.5129V151.29C2.83979 152.043 3.13912 152.764 3.67134 153.297C4.20356 153.829 4.9252 154.129 5.678 154.13H222.851C223.604 154.129 224.326 153.83 224.858 153.297C225.39 152.765 225.689 152.043 225.69 151.29V94.5129C225.689 93.7602 225.39 93.0384 224.858 92.5061C224.326 91.9737 223.604 91.6745 222.851 91.6739H5.678Z" fill="#111111"/>
<path id="Path 57" d="M70.073 128.407C69.9004 128.406 69.7287 128.382 69.563 128.333L69.043 128.259C68.8397 128.211 68.6506 128.115 68.4908 127.981C68.3311 127.846 68.2051 127.676 68.123 127.484C67.8914 126.916 67.8914 126.281 68.123 125.713C68.4603 124.779 68.8544 123.867 69.303 122.982C69.403 122.782 69.493 122.563 69.593 122.317C69.7147 122.089 69.8248 121.856 69.923 121.617C69.5498 121.773 69.2025 121.985 68.893 122.245C68.553 122.515 68.193 122.798 67.823 123.093C67.5882 123.261 67.3008 123.34 67.013 123.315C66.7132 123.276 66.4368 123.132 66.233 122.909C66.1501 122.793 66.0914 122.661 66.0605 122.521C66.0295 122.382 66.027 122.237 66.053 122.097C66.0765 121.802 66.2083 121.526 66.423 121.322C66.763 121.076 67.123 120.805 67.493 120.51C67.8635 120.229 68.2584 119.982 68.673 119.772C69.5075 119.279 70.5021 119.133 71.443 119.366C71.6399 119.405 71.8238 119.493 71.9777 119.622C72.1315 119.751 72.2503 119.917 72.323 120.104C72.4222 120.338 72.4708 120.591 72.4656 120.845C72.4604 121.1 72.4016 121.35 72.293 121.58C71.9978 122.401 71.6504 123.203 71.253 123.98C71.133 124.28 70.993 124.571 70.853 124.866C70.713 125.161 70.603 125.444 70.483 125.715C70.4593 125.806 70.4223 125.893 70.373 125.973C70.343 126.047 70.323 126.121 70.293 126.194C71.0734 126.034 71.8298 125.774 72.543 125.419C73.9942 124.663 75.3561 123.747 76.603 122.688C77.513 121.975 78.343 121.288 79.083 120.622C79.823 119.933 80.413 119.366 80.853 118.922L81.513 118.258C81.6339 118.097 81.8023 117.979 81.9943 117.919C82.1864 117.859 82.3924 117.862 82.583 117.926C82.6762 117.935 82.7667 117.962 82.8491 118.006C82.9316 118.051 83.0043 118.111 83.063 118.184C83.1777 118.294 83.2785 118.418 83.363 118.553C83.448 118.744 83.4945 118.95 83.4996 119.159C83.5048 119.368 83.4685 119.576 83.393 119.771C83.1644 120.511 82.8939 121.238 82.583 121.948C82.443 122.268 82.293 122.588 82.143 122.908C82.023 123.228 81.893 123.523 81.773 123.794C81.753 123.894 81.723 123.978 81.703 124.052C81.699 124.103 81.6854 124.154 81.663 124.2C82.1906 124.103 82.6936 123.902 83.143 123.609C83.6839 123.262 84.2016 122.879 84.693 122.465C85.203 122.047 85.633 121.69 85.983 121.395C86.0886 121.29 86.2157 121.209 86.3556 121.158C86.4954 121.107 86.6447 121.088 86.793 121.1C87.0891 121.125 87.3662 121.256 87.573 121.469C87.7605 121.696 87.8504 121.987 87.823 122.28C87.8228 122.429 87.7894 122.575 87.7254 122.709C87.6614 122.843 87.5684 122.961 87.453 123.055C86.693 123.72 85.903 124.347 85.093 124.938C84.3648 125.5 83.5556 125.947 82.693 126.266C81.921 126.537 81.0867 126.575 80.293 126.377C79.9365 126.235 79.6399 125.974 79.453 125.639C79.3008 125.278 79.249 124.883 79.303 124.495C79.4054 123.967 79.5526 123.448 79.743 122.945C79.472 123.193 79.1883 123.427 78.893 123.645C78.623 123.866 78.333 124.112 78.013 124.383C74.613 127.065 71.973 128.407 70.073 128.407ZM89.713 128.406C89.5404 128.405 89.3687 128.381 89.203 128.332L88.683 128.258C88.4797 128.21 88.2906 128.114 88.1308 127.98C87.9711 127.845 87.8451 127.675 87.763 127.483C87.5415 126.913 87.5415 126.282 87.763 125.712C88.1003 124.778 88.4944 123.866 88.943 122.981C89.0528 122.765 89.1496 122.543 89.233 122.316C89.363 122.07 89.473 121.837 89.573 121.616C89.1965 121.771 88.8459 121.983 88.533 122.244C88.193 122.514 87.833 122.797 87.463 123.092C87.2293 123.263 86.9411 123.342 86.653 123.314C86.3553 123.277 86.0814 123.133 85.883 122.908C85.7965 122.793 85.7349 122.662 85.7021 122.522C85.6694 122.382 85.6663 122.237 85.693 122.096C85.7207 121.802 85.8518 121.527 86.063 121.321C86.403 121.075 86.763 120.804 87.133 120.509C87.5035 120.228 87.8984 119.981 88.313 119.771C89.1475 119.278 90.1421 119.132 91.083 119.365C91.2807 119.405 91.4654 119.494 91.6206 119.622C91.7759 119.751 91.8969 119.916 91.973 120.103C92.0678 120.339 92.1132 120.591 92.1063 120.845C92.0994 121.099 92.0404 121.349 91.933 121.579C91.6376 122.399 91.2937 123.2 90.903 123.979C90.773 124.279 90.643 124.57 90.493 124.865C90.373 125.16 90.243 125.443 90.123 125.714C90.1037 125.806 90.0663 125.894 90.013 125.972C89.9853 126.044 89.9619 126.118 89.943 126.193C90.7226 126.03 91.4786 125.77 92.193 125.418C93.6428 124.66 95.0044 123.744 96.253 122.687C97.163 121.974 97.983 121.287 98.723 120.621C99.463 119.932 100.053 119.365 100.493 118.921L101.153 118.257C101.274 118.097 101.443 117.979 101.635 117.919C101.827 117.86 102.032 117.862 102.223 117.925C102.316 117.934 102.407 117.961 102.489 118.005C102.572 118.05 102.644 118.11 102.703 118.183C102.925 118.374 103.079 118.633 103.14 118.919C103.202 119.206 103.168 119.505 103.043 119.77C102.913 120.213 102.643 120.939 102.223 121.947C102.083 122.267 101.933 122.587 101.783 122.907C101.663 123.227 101.543 123.522 101.413 123.793C101.393 123.893 101.363 123.977 101.343 124.051C101.344 124.103 101.33 124.154 101.303 124.199C101.831 124.102 102.334 123.901 102.783 123.608C103.326 123.263 103.843 122.881 104.333 122.464C104.853 122.046 105.283 121.689 105.623 121.394C105.73 121.29 105.857 121.211 105.996 121.16C106.136 121.109 106.285 121.088 106.433 121.099C106.73 121.121 107.008 121.253 107.213 121.468C107.399 121.696 107.492 121.986 107.473 122.279C107.47 122.427 107.436 122.573 107.372 122.707C107.308 122.84 107.217 122.959 107.103 123.054C106.333 123.719 105.553 124.346 104.733 124.937C104.007 125.496 103.201 125.944 102.343 126.265C101.571 126.535 100.737 126.573 99.943 126.376C99.5821 126.237 99.2813 125.976 99.093 125.638C98.9408 125.277 98.889 124.882 98.943 124.494C99.0454 123.966 99.1926 123.447 99.383 122.944C99.112 123.192 98.8283 123.426 98.533 123.644C98.263 123.865 97.973 124.111 97.653 124.382C94.253 127.064 91.613 128.405 89.713 128.405M109.363 128.405C109.187 128.405 109.012 128.38 108.843 128.331L108.323 128.257C108.12 128.209 107.931 128.113 107.771 127.979C107.611 127.844 107.485 127.674 107.403 127.482C107.181 126.912 107.181 126.281 107.403 125.711C107.745 124.779 108.139 123.867 108.583 122.98C108.683 122.78 108.783 122.558 108.883 122.315C109.003 122.069 109.113 121.836 109.213 121.615C108.839 121.769 108.491 121.98 108.183 122.243C107.833 122.51 107.473 122.792 107.103 123.091C106.869 123.262 106.581 123.341 106.293 123.313C105.995 123.276 105.721 123.132 105.523 122.907C105.439 122.791 105.378 122.66 105.346 122.52C105.313 122.381 105.309 122.236 105.333 122.095C105.361 121.801 105.492 121.526 105.703 121.32C106.053 121.074 106.403 120.803 106.773 120.508C107.145 120.229 107.54 119.983 107.953 119.77C108.788 119.277 109.782 119.131 110.723 119.364C110.921 119.403 111.107 119.491 111.262 119.619C111.418 119.748 111.538 119.914 111.613 120.102C111.708 120.338 111.753 120.59 111.746 120.844C111.739 121.098 111.68 121.348 111.573 121.578C111.278 122.398 110.934 123.199 110.543 123.978C110.413 124.278 110.283 124.569 110.133 124.864C110.013 125.159 109.883 125.442 109.763 125.713C109.744 125.805 109.706 125.893 109.653 125.971C109.633 126.045 109.603 126.119 109.583 126.192C110.363 126.029 111.119 125.769 111.833 125.417C113.283 124.659 114.644 123.743 115.893 122.686C116.803 121.973 117.623 121.286 118.363 120.62C119.103 119.931 119.693 119.364 120.133 118.92C120.583 118.477 120.803 118.256 120.803 118.256C120.923 118.095 121.092 117.976 121.284 117.916C121.476 117.857 121.682 117.859 121.873 117.924C122.06 117.946 122.231 118.038 122.353 118.182C122.465 118.292 122.562 118.416 122.643 118.551C122.73 118.741 122.778 118.947 122.785 119.156C122.792 119.365 122.757 119.573 122.683 119.769C122.454 120.509 122.184 121.236 121.873 121.946L121.423 122.906C121.303 123.226 121.183 123.521 121.053 123.792C121.037 123.88 121.014 123.966 120.983 124.05C120.984 124.102 120.97 124.153 120.943 124.198C121.471 124.101 121.974 123.9 122.423 123.607C122.966 123.262 123.483 122.88 123.973 122.463C124.493 122.045 124.923 121.688 125.263 121.393C125.37 121.289 125.497 121.21 125.636 121.159C125.776 121.108 125.925 121.087 126.073 121.098C126.37 121.12 126.648 121.252 126.853 121.467C127.043 121.692 127.137 121.984 127.113 122.278C127.11 122.426 127.076 122.572 127.012 122.706C126.948 122.839 126.857 122.958 126.743 123.053C125.983 123.718 125.193 124.345 124.383 124.936C123.652 125.494 122.844 125.941 121.983 126.264C121.211 126.534 120.377 126.572 119.583 126.375C119.224 126.233 118.924 125.972 118.733 125.637C118.581 125.276 118.529 124.881 118.583 124.493C118.689 123.965 118.84 123.446 119.033 122.943C118.753 123.189 118.473 123.423 118.183 123.643C117.913 123.864 117.613 124.11 117.293 124.381C113.903 127.063 111.253 128.405 109.363 128.405ZM134.463 126.304C134.193 126.313 133.929 126.221 133.723 126.046C133.539 125.91 133.406 125.716 133.346 125.494C133.286 125.273 133.303 125.038 133.393 124.828C133.393 124.803 133.483 124.508 133.653 123.942C133.843 123.376 134.073 122.737 134.313 122.023C134.443 121.605 134.553 121.248 134.643 120.953C134.743 120.633 134.833 120.353 134.903 120.104C134.243 120.35 133.433 120.658 132.473 121.027C131.513 121.371 130.503 121.74 129.443 122.134C128.413 122.528 127.403 122.909 126.413 123.278C126.282 123.327 126.143 123.349 126.004 123.342C125.865 123.336 125.729 123.301 125.603 123.241C125.321 123.104 125.1 122.867 124.983 122.577C124.933 122.445 124.913 122.304 124.925 122.163C124.937 122.022 124.981 121.886 125.053 121.765C125.109 121.622 125.194 121.493 125.302 121.385C125.411 121.277 125.54 121.192 125.683 121.137C126.783 120.744 127.933 120.337 129.113 119.92C130.293 119.477 131.383 119.071 132.393 118.702C133.403 118.308 134.233 117.988 134.873 117.742L135.833 117.373C135.951 117.348 136.072 117.336 136.193 117.336C136.307 117.31 136.427 117.323 136.533 117.373C136.698 117.394 136.853 117.46 136.982 117.565C137.111 117.669 137.208 117.807 137.263 117.964C137.401 118.197 137.454 118.471 137.413 118.739C137.395 119.174 137.334 119.606 137.233 120.03C137.153 120.35 137.063 120.707 136.933 121.101C136.833 121.47 136.703 121.901 136.533 122.392C136.503 122.492 136.483 122.577 136.453 122.651C136.423 122.725 136.403 122.81 136.383 122.909C137.558 122.276 138.766 121.709 140.003 121.209C140.129 121.148 140.268 121.117 140.408 121.117C140.548 121.117 140.687 121.148 140.813 121.209C140.948 121.249 141.071 121.32 141.174 121.416C141.276 121.512 141.355 121.631 141.403 121.763C141.476 121.891 141.518 122.035 141.525 122.183C141.532 122.33 141.504 122.477 141.443 122.612C141.333 122.892 141.117 123.117 140.843 123.239C139.743 123.731 138.743 124.199 137.863 124.639C136.983 125.079 136.313 125.439 135.793 125.71L135.013 126.116C134.858 126.243 134.663 126.308 134.463 126.3M145.043 128.478C144.919 128.478 144.795 128.465 144.673 128.441C144.536 128.439 144.399 128.427 144.263 128.404C143.952 128.29 143.692 128.067 143.533 127.776C143.421 127.52 143.37 127.243 143.383 126.964C143.425 126.386 143.536 125.816 143.713 125.264C143.933 124.476 144.293 123.308 144.783 121.758C144.243 121.958 143.613 122.188 142.903 122.458C142.213 122.729 141.503 122.999 140.763 123.27C140.632 123.319 140.493 123.341 140.354 123.334C140.215 123.328 140.079 123.293 139.953 123.233C139.666 123.099 139.441 122.862 139.323 122.569C139.275 122.437 139.257 122.296 139.269 122.155C139.281 122.015 139.323 121.879 139.393 121.757C139.512 121.473 139.738 121.247 140.023 121.129C141.083 120.736 142.063 120.367 142.973 120.022C143.913 119.678 144.673 119.395 145.263 119.173L146.153 118.841C146.409 118.742 146.693 118.74 146.951 118.835C147.208 118.93 147.422 119.116 147.553 119.358C147.609 119.444 147.648 119.541 147.667 119.642C147.686 119.743 147.684 119.847 147.663 119.948C147.639 120.135 147.602 120.32 147.553 120.502C147.499 120.606 147.462 120.718 147.443 120.834C147.413 120.934 147.383 121.056 147.333 121.203C147.163 121.621 146.973 122.138 146.773 122.753C146.603 123.344 146.423 123.947 146.223 124.562C146.103 124.906 146.003 125.201 145.933 125.447C145.863 125.693 145.793 125.915 145.743 126.112C146.452 125.915 147.134 125.629 147.773 125.263C148.533 124.845 149.353 124.363 150.213 123.824C151.093 123.258 151.993 122.667 152.903 122.052C153.103 121.929 153.293 121.806 153.493 121.683C153.703 121.568 153.901 121.432 154.083 121.277C154.206 121.194 154.346 121.138 154.492 121.113C154.639 121.087 154.789 121.093 154.933 121.129C155.084 121.149 155.229 121.202 155.357 121.285C155.485 121.368 155.593 121.479 155.673 121.609C155.756 121.725 155.812 121.858 155.838 121.998C155.864 122.139 155.859 122.283 155.823 122.421C155.799 122.566 155.744 122.703 155.661 122.824C155.578 122.945 155.469 123.047 155.343 123.121C155.143 123.269 154.933 123.417 154.713 123.564C154.513 123.687 154.303 123.823 154.083 123.97C153.153 124.585 152.243 125.176 151.353 125.742C150.463 126.307 149.633 126.8 148.843 127.218C147.687 127.916 146.388 128.345 145.043 128.473M163.183 126.295C162.916 126.304 162.655 126.212 162.453 126.037C162.266 125.903 162.13 125.71 162.068 125.488C162.006 125.266 162.022 125.03 162.113 124.819C162.113 124.794 162.203 124.499 162.373 123.933C162.573 123.367 162.793 122.728 163.043 122.014C163.163 121.596 163.273 121.239 163.373 120.944C163.473 120.624 163.553 120.344 163.633 120.095C162.963 120.341 162.153 120.649 161.193 121.018C160.233 121.362 159.223 121.731 158.163 122.125C157.133 122.519 156.123 122.9 155.143 123.269C155.012 123.318 154.873 123.34 154.734 123.333C154.595 123.327 154.459 123.292 154.333 123.232C154.046 123.098 153.821 122.861 153.703 122.568C153.655 122.436 153.636 122.295 153.649 122.154C153.661 122.014 153.703 121.878 153.773 121.756C153.892 121.472 154.118 121.246 154.403 121.128L157.833 119.911C159.013 119.468 160.113 119.062 161.123 118.693C162.133 118.299 162.953 117.979 163.593 117.733L164.553 117.364C164.675 117.339 164.799 117.327 164.923 117.327C165.034 117.302 165.15 117.315 165.253 117.364C165.419 117.385 165.576 117.451 165.706 117.555C165.837 117.659 165.936 117.798 165.993 117.955C166.121 118.192 166.174 118.462 166.143 118.73C166.12 119.165 166.056 119.598 165.953 120.021C165.883 120.341 165.783 120.698 165.663 121.092C165.563 121.461 165.423 121.892 165.253 122.383C165.233 122.483 165.203 122.568 165.183 122.642C165.163 122.716 165.133 122.801 165.103 122.9C166.279 122.269 167.487 121.702 168.723 121.2C168.849 121.139 168.988 121.108 169.128 121.108C169.268 121.108 169.407 121.139 169.533 121.2C169.668 121.238 169.793 121.309 169.895 121.405C169.998 121.502 170.076 121.621 170.123 121.754C170.196 121.882 170.238 122.026 170.245 122.174C170.252 122.321 170.224 122.468 170.163 122.603C170.057 122.882 169.845 123.107 169.573 123.23C168.463 123.722 167.473 124.19 166.583 124.63C165.723 125.073 165.033 125.43 164.513 125.701C164.003 125.971 163.743 126.107 163.743 126.107C163.585 126.234 163.386 126.299 163.183 126.291M182.073 125.922C181.91 125.923 181.748 125.898 181.593 125.848C181.368 125.804 181.157 125.703 180.982 125.554C180.807 125.405 180.673 125.214 180.593 124.999C180.448 124.536 180.487 124.034 180.703 123.599C180.953 123.082 181.273 122.504 181.663 121.865C181.813 121.643 181.943 121.422 182.073 121.2C182.223 120.954 182.343 120.733 182.443 120.536C182.493 120.462 182.523 120.401 182.553 120.351C182.572 120.288 182.596 120.227 182.623 120.167C181.769 120.04 180.903 120.015 180.043 120.093C178.944 120.166 177.854 120.351 176.793 120.647C175.733 120.917 174.593 121.274 173.363 121.717C172.153 122.135 170.873 122.639 169.523 123.23C169.262 123.328 168.974 123.328 168.713 123.23C168.581 123.184 168.461 123.111 168.359 123.015C168.258 122.92 168.177 122.804 168.123 122.676C168.05 122.548 168.009 122.404 168.002 122.257C167.995 122.109 168.023 121.963 168.083 121.828C168.128 121.686 168.205 121.556 168.307 121.447C168.409 121.339 168.534 121.254 168.673 121.2C170.053 120.585 171.363 120.056 172.623 119.613C173.807 119.174 175.016 118.805 176.243 118.506C178.643 117.766 181.191 117.639 183.653 118.137C183.92 118.2 184.168 118.326 184.376 118.506C184.583 118.686 184.743 118.914 184.843 119.17C184.95 119.464 184.992 119.779 184.966 120.091C184.94 120.403 184.847 120.706 184.693 120.979C184.349 121.689 183.965 122.379 183.543 123.045C183.512 123.11 183.475 123.172 183.433 123.23C183.378 123.311 183.331 123.397 183.293 123.488C183.853 123.365 184.693 123.119 185.793 122.75C186.893 122.381 188.433 121.84 190.373 121.126C190.505 121.078 190.646 121.059 190.786 121.072C190.926 121.085 191.062 121.128 191.183 121.2C191.451 121.325 191.661 121.547 191.77 121.821C191.88 122.095 191.881 122.401 191.773 122.676C191.709 122.814 191.618 122.938 191.504 123.04C191.391 123.141 191.257 123.219 191.113 123.267C189.983 123.661 188.943 124.017 188.013 124.337C187.083 124.657 186.243 124.928 185.503 125.149C184.523 125.444 183.773 125.653 183.253 125.776C182.865 125.859 182.47 125.909 182.073 125.924" fill="#111111"/>
<path id="Path 58" d="M32.313 138.517C29.2243 138.518 26.2049 137.602 23.6367 135.886C21.0685 134.17 19.0667 131.731 17.8847 128.878C16.7027 126.024 16.3935 122.884 16.9962 119.855C17.5988 116.826 19.0864 114.043 21.2706 111.86C23.4548 109.676 26.2376 108.189 29.267 107.587C32.2964 106.985 35.4363 107.294 38.2896 108.477C41.1429 109.66 43.5814 111.662 45.2967 114.23C47.012 116.799 47.927 119.818 47.926 122.907C47.9207 127.046 46.274 131.014 43.347 133.94C40.4201 136.867 36.4519 138.513 32.313 138.517ZM32.313 110.127C29.7865 110.127 27.3167 110.876 25.2158 112.279C23.115 113.683 21.4774 115.677 20.5102 118.011C19.543 120.346 19.2896 122.914 19.782 125.392C20.2744 127.87 21.4905 130.146 23.2766 131.933C25.0627 133.72 27.3385 134.937 29.8163 135.431C32.2941 135.925 34.8626 135.672 37.1971 134.706C39.5315 133.74 41.5271 132.103 42.9315 130.003C44.3359 127.903 45.086 125.434 45.087 122.907C45.0838 119.52 43.7372 116.272 41.3424 113.876C38.9477 111.48 35.7004 110.132 32.313 110.127Z" fill="#111111"/>
<path id="Path 59" d="M46.507 124.327H18.118C17.9284 124.332 17.7398 124.299 17.5631 124.23C17.3865 124.161 17.2255 124.057 17.0897 123.925C16.9538 123.793 16.8458 123.634 16.7721 123.46C16.6983 123.285 16.6603 123.097 16.6603 122.908C16.6603 122.718 16.6983 122.53 16.7721 122.355C16.8458 122.181 16.9538 122.023 17.0897 121.89C17.2255 121.758 17.3865 121.654 17.5631 121.585C17.7398 121.516 17.9284 121.483 18.118 121.488H46.507C46.877 121.498 47.2285 121.652 47.4867 121.917C47.7449 122.182 47.8893 122.537 47.8893 122.908C47.8893 123.278 47.7449 123.633 47.4867 123.898C47.2285 124.163 46.877 124.317 46.507 124.327Z" fill="#111111"/>
<path id="Path 60" d="M32.313 138.516C32.1158 138.516 31.9208 138.475 31.7404 138.395C31.5599 138.316 31.398 138.2 31.265 138.054C27.3822 133.966 25.2173 128.542 25.2173 122.904C25.2173 117.266 27.3822 111.842 31.265 107.754C31.3979 107.608 31.56 107.491 31.7408 107.411C31.9216 107.33 32.1172 107.289 32.315 107.289C32.5128 107.289 32.7083 107.33 32.8892 107.411C33.07 107.491 33.2321 107.608 33.365 107.754C37.2478 111.842 39.4126 117.266 39.4126 122.904C39.4126 128.542 37.2478 133.966 33.365 138.054C33.2318 138.199 33.0699 138.316 32.8895 138.395C32.7091 138.475 32.5141 138.516 32.317 138.516M32.317 110.909C29.562 114.299 28.0581 118.534 28.0581 122.902C28.0581 127.27 29.562 131.504 32.317 134.894C35.072 131.504 36.5759 127.27 36.5759 122.902C36.5759 118.534 35.072 114.299 32.317 110.909Z" fill="#111111"/>
<path id="Path 61" d="M226.19 72.4589H9.01699C7.51158 72.4573 6.06828 71.8586 5.00379 70.7941C3.9393 69.7296 3.34058 68.2863 3.33899 66.7809V9.9999C3.34164 8.49528 3.94086 7.05311 5.00526 5.98964C6.06966 4.92618 7.51236 4.32823 9.01699 4.3269H226.19C227.695 4.32823 229.137 4.92618 230.202 5.98964C231.266 7.05311 231.865 8.49528 231.868 9.9999V66.7809C231.866 68.2863 231.268 69.7296 230.203 70.7941C229.139 71.8586 227.695 72.4573 226.19 72.4589ZM9.01699 7.1649C8.26498 7.1657 7.54393 7.46451 7.0118 7.99589C6.47967 8.52727 6.17984 9.24789 6.17799 9.9999V66.7809C6.17878 67.5337 6.47811 68.2555 7.01033 68.7879C7.54254 69.3203 8.26419 69.6198 9.01699 69.6209H226.19C226.943 69.6201 227.665 69.3206 228.197 68.7881C228.729 68.2557 229.028 67.5338 229.029 66.7809V9.9999C229.028 9.24712 228.729 8.52531 228.197 7.99301C227.665 7.46071 226.943 7.16143 226.19 7.1609L9.01699 7.1649Z" fill="#111111"/>
</g>
</g>
</g>
</g>
</g>
</svg>
