<?xml version="1.0" encoding="UTF-8" standalone="no"?>
<svg xmlns:dc="http://purl.org/dc/elements/1.1/" xmlns:cc="http://creativecommons.org/ns#" xmlns:rdf="http://www.w3.org/1999/02/22-rdf-syntax-ns#" xmlns:svg="http://www.w3.org/2000/svg" xmlns="http://www.w3.org/2000/svg" xmlns:sodipodi="http://sodipodi.sourceforge.net/DTD/sodipodi-0.dtd" xmlns:inkscape="http://www.inkscape.org/namespaces/inkscape" width="512" height="512" id="svg2" version="1.1" inkscape:version="0.48.5 r" sodipodi:docname="lesotho_national_country_flag.svg">
  <defs id="defs4">
    <clipPath clipPathUnits="userSpaceOnUse" id="clipPath3466">
      <rect style="fill:#f1c40f;fill-opacity:1;stroke:none" id="rect3468" width="480" height="480" x="16.000036" y="556.36224" ry="48"/>
    </clipPath>
  </defs>
  <sodipodi:namedview id="base" pagecolor="#ffffff" bordercolor="#666666" borderopacity="1.0" inkscape:pageopacity="0.0" inkscape:pageshadow="2" inkscape:zoom="0.35" inkscape:cx="-359.57143" inkscape:cy="18.6704" inkscape:document-units="px" inkscape:current-layer="layer1" showgrid="false" inkscape:window-width="1366" inkscape:window-height="713" inkscape:window-x="0" inkscape:window-y="26" inkscape:window-maximized="1"/>
  
  <g inkscape:label="Layer 1" inkscape:groupmode="layer" id="layer1" transform="translate(0,-540.36218)">
    <g id="g5748" transform="translate(-3.5309133e-5,-3.8331718e-5)" clip-path="url(#clipPath3466)">
      <g transform="matrix(1,0,0,-1,0,1592.7244)" id="g5681">
        <g id="g3786" transform="matrix(0,0.96000003,-0.96000003,0,1020.5078,550.60215)">
          <g transform="matrix(0,1,1,0,-530.36215,540.36223)" id="g3753">
            <rect style="fill:#2ecc71;fill-opacity:1;stroke:none" id="rect2985" width="166.66667" height="500" x="536.36218" y="-506" transform="matrix(0,1,-1,0,0,0)"/>
            <rect y="-506" x="703.02887" height="500" width="166.66667" id="rect2987" style="fill:#ffffff;fill-opacity:1;stroke:none" transform="matrix(0,1,-1,0,0,0)"/>
            <rect style="fill:#2980b9;fill-opacity:1;stroke:none" id="rect2989" width="166.66667" height="500" x="869.6955" y="-506" transform="matrix(0,1,-1,0,0,0)"/>
          </g>
        </g>
      </g>
      <g id="g3025" transform="matrix(1.2527524,0,0,1.2527524,-26.177492,608.44835)">
        <g id="g10" style="fill:#ffffff">
          <path d="m 224.76,95.569 c -1.7098,0.03684 -3.3781,1.9308 -3.3781,1.9308 l 0.14732,20.233 -6.3878,6.692 h 5.1711 l -0.0437,11.603 -30.591,41.193 -4.5222,-1.563 -7.9041,16.861 c 0,0 19.55,12.242 47.925,11.907 31.144,-0.37035 48.064,-12.471 48.064,-12.471 l -8.1677,-16.644 -3.9996,1.7393 -30.983,-40.979 -0.0437,-11.949 h 5.1711 l -7.0378,-6.6088 0.0416,-20.159 c 0,0 -1.7514,-1.8203 -3.4613,-1.7835 z" id="path12" inkscape:connector-curvature="0" style="fill:#000000;stroke:#000000;stroke-width:1.59648454"/>
          <path d="m 235.43,144.01 -21.153,0 c 0,0 -7.6776,-16.176 -6.4331,-27.485 1.2672,-11.515 7.8483,-16.963 16.598,-17.059 10.345,-0.11526 15.767,5.0691 17.405,16.598 1.6231,11.424 -6.4172,27.947 -6.4172,27.947 z" id="path14" inkscape:connector-curvature="0" style="fill:none;stroke:#000000;stroke-width:7.98242235"/>
          <path d="m 187.79,182.57 c -0.3458,0.46106 -2.8816,5.5326 -2.8816,5.5326 l 4.38,-0.92211 -1.4984,-4.6105 z" id="path16" inkscape:connector-curvature="0"/>
          <path d="m 190.32,189.14 -4.6105,1.4984 5.5327,2.19 -0.92212,-3.6884 z" id="path18" inkscape:connector-curvature="0"/>
          <path d="m 192.4,182.68 2.3053,6.8006 5.6479,-1.6137 -1.4984,-3.2274 L 192.4,182.68 z" id="path20" inkscape:connector-curvature="0"/>
          <path d="m 195.97,191.91 0.80685,2.7663 7.4921,1.8442 -2.9968,-6.3395 -5.3021,1.729 z" id="path22" inkscape:connector-curvature="0"/>
          <path d="m 204.27,186.14 2.6511,6.3395 5.6479,-2.19 -1.8442,-2.7663 -6.4548,-1.3832 z" id="path24" inkscape:connector-curvature="0"/>
          <path d="m 207.96,194.79 0.92211,2.4205 8.76,1.2679 -3.6884,-5.7632 -5.9937,2.0747 z" id="path26" inkscape:connector-curvature="0"/>
          <path d="m 216.37,187.99 3.2274,5.6479 8.1837,-2.9969 -0.9221,-2.19 -10.489,-0.46106 z" id="path28" inkscape:connector-curvature="0"/>
          <path d="m 221.1,195.71 1.729,2.9969 10.143,-0.3458 -3.8037,-5.6479 -8.0684,2.9968 z" id="path30" inkscape:connector-curvature="0"/>
          <path d="m 231.82,188.22 2.7663,4.7258 6.4548,-3.1121 -1.729,-2.5358 -7.4921,0.92212 z" id="path32" inkscape:connector-curvature="0"/>
          <path d="m 242.42,191.79 -6.4548,3.2274 1.729,2.7663 8.6448,-1.3832 -3.919,-4.6106 z" id="path34" inkscape:connector-curvature="0"/>
          <path d="m 244.5,186.83 3.3426,4.1495 5.4174,-4.2648 -1.8442,-1.9595 -6.9158,2.0748 z" id="path36" inkscape:connector-curvature="0"/>
          <path d="m 254.41,189.02 -5.1869,3.919 1.3832,2.4205 7.1464,-1.8442 -3.3426,-4.4953 z" id="path38" inkscape:connector-curvature="0"/>
          <path d="m 261.56,180.84 1.2679,1.8442 -3.5732,5.3021 -3.6884,-4.7258 5.9937,-2.4205 z" id="path40" inkscape:connector-curvature="0"/>
          <path d="m 263.98,185.45 2.19,4.38 -4.38,1.4984 -0.34579,-2.0748 2.5358,-3.8037 z" id="path42" inkscape:connector-curvature="0"/>
        </g>
      </g>
    </g>
  </g>

	<metadata>
		<rdf:RDF xmlns:rdf="http://www.w3.org/1999/02/22-rdf-syntax-ns#" xmlns:rdfs="http://www.w3.org/2000/01/rdf-schema#" xmlns:dc="http://purl.org/dc/elements/1.1/">
			<rdf:Description about="https://iconscout.com/legal#licenses" dc:title="lesotho_national_country_flag" dc:description="lesotho_national_country_flag" dc:publisher="Iconscout" dc:date="2017-05-26" dc:format="image/svg+xml" dc:language="en">
				<dc:creator>
					<rdf:Bag>
						<rdf:li>Vignesh Oviyan</rdf:li>
					</rdf:Bag>
				</dc:creator>
			</rdf:Description>
		</rdf:RDF>
    </metadata></svg>
