<?xml version="1.0" encoding="UTF-8" standalone="no"?>
<svg xmlns:dc="http://purl.org/dc/elements/1.1/" xmlns:cc="http://creativecommons.org/ns#" xmlns:rdf="http://www.w3.org/1999/02/22-rdf-syntax-ns#" xmlns:svg="http://www.w3.org/2000/svg" xmlns="http://www.w3.org/2000/svg" xmlns:xlink="http://www.w3.org/1999/xlink" xmlns:sodipodi="http://sodipodi.sourceforge.net/DTD/sodipodi-0.dtd" xmlns:inkscape="http://www.inkscape.org/namespaces/inkscape" width="512" height="512" id="svg2" version="1.1" inkscape:version="0.48.5 r" sodipodi:docname="malawi_malawian_national_country_flag.svg">
  <defs id="defs4">
    <clipPath clipPathUnits="userSpaceOnUse" id="clipPath3444">
      <rect style="fill:#f1c40f;fill-opacity:1;stroke:none" id="rect3446" width="480" height="480" x="16.000021" y="556.36218" ry="48"/>
    </clipPath>
  </defs>
  <sodipodi:namedview id="base" pagecolor="#ffffff" bordercolor="#666666" borderopacity="1.0" inkscape:pageopacity="0.0" inkscape:pageshadow="2" inkscape:zoom="0.25" inkscape:cx="307.99014" inkscape:cy="292.28682" inkscape:document-units="px" inkscape:current-layer="layer1" showgrid="false" inkscape:window-width="1366" inkscape:window-height="713" inkscape:window-x="0" inkscape:window-y="26" inkscape:window-maximized="1"/>
  
  <g inkscape:label="Layer 1" inkscape:groupmode="layer" id="layer1" transform="translate(0,-540.36218)">
    <g id="g4815" transform="translate(-2.0660695e-5,-1.668282e-6)" clip-path="url(#clipPath3444)">
      <g transform="matrix(0,0.96000003,-0.96000003,0,1020.5078,550.60215)" id="g3786">
        <g id="g3753" transform="matrix(0,1,1,0,-530.36215,540.36223)">
          <rect transform="matrix(0,1,-1,0,0,0)" y="-506.00003" x="536.36218" height="500" width="166.66667" id="rect2985" style="fill:#222222;fill-opacity:1;stroke:none"/>
          <rect transform="matrix(0,1,-1,0,0,0)" style="fill:#c0392b;fill-opacity:1;stroke:none" id="rect2987" width="166.66667" height="500" x="703.02887" y="-506"/>
          <rect transform="matrix(0,1,-1,0,0,0)" y="-506" x="869.6955" height="500" width="166.66667" id="rect2989" style="fill:#27ae60;fill-opacity:1;stroke:none"/>
        </g>
      </g>
      <g inkscape:export-ydpi="90" inkscape:export-xdpi="90" inkscape:export-filename="/home/vignesh/நிகழ்படங்கள்/iconfinder/flags/finished/png/malawi.png" style="fill:#c0392b;fill-opacity:1" id="g8" transform="matrix(1.0248814,0,0,1.1755436,256,732.81618)">
        <circle style="fill:#c0392b;fill-opacity:1" id="circle10" r="64.5" d="M 64.5,0 C 64.5,35.622366 35.622366,64.5 0,64.5 -35.622366,64.5 -64.5,35.622366 -64.5,0 c 0,-35.622366 28.877634,-64.5 64.5,-64.5 35.622366,0 64.5,28.877634 64.5,64.5 z" cx="0" cy="0" sodipodi:cx="0" sodipodi:cy="0" sodipodi:rx="64.5" sodipodi:ry="64.5"/>
        <rect style="fill:#c0392b;fill-opacity:1" id="rect12" height="100" width="450" y="-14" x="-225"/>
        <g style="fill:#c0392b;fill-opacity:1" id="r16">
          <g style="fill:#c0392b;fill-opacity:1" id="r8">
            <g style="fill:#c0392b;fill-opacity:1" id="r4">
              <g style="fill:#c0392b;fill-opacity:1" id="r2">
                <path style="fill:#c0392b;fill-opacity:1" d="m 0,-102 c -2.2,0 -3,3.3 -3,6.5 0,8 1,12 3,23.5 2.04,-11.5 3,-15.6 3,-23.5 0,-3.3 -1,-6.5 -3,-6.5" id="r" inkscape:connector-curvature="0"/>
                <use style="fill:#c0392b;fill-opacity:1" id="use19" xlink:href="#r" transform="matrix(0.9961947,0.08715574,-0.08715574,0.9961947,0,0)" x="0" y="0" width="744.09448" height="1052.3622"/>
              </g>
              <use style="fill:#c0392b;fill-opacity:1" id="use21" xlink:href="#r2" transform="matrix(0.98480775,0.17364818,-0.17364818,0.98480775,0,0)" x="0" y="0" width="744.09448" height="1052.3622"/>
            </g>
            <use style="fill:#c0392b;fill-opacity:1" id="use23" xlink:href="#r4" transform="matrix(0.93969262,0.34202014,-0.34202014,0.93969262,0,0)" x="0" y="0" width="744.09448" height="1052.3622"/>
          </g>
          <use style="fill:#c0392b;fill-opacity:1" id="use25" xlink:href="#r8" transform="matrix(0.76604444,0.64278761,-0.64278761,0.76604444,0,0)" x="0" y="0" width="744.09448" height="1052.3622"/>
        </g>
        <use style="fill:#c0392b;fill-opacity:1" id="use27" xlink:href="#r16" transform="matrix(0.17364818,-0.98480775,0.98480775,0.17364818,0,0)" x="0" y="0" width="744.09448" height="1052.3622"/>
      </g>
      <rect y="708.36218" x="16" height="10" width="480" id="rect4813" style="fill:#222222;fill-opacity:1;stroke:none"/>
    </g>
  </g>

	<metadata>
		<rdf:RDF xmlns:rdf="http://www.w3.org/1999/02/22-rdf-syntax-ns#" xmlns:rdfs="http://www.w3.org/2000/01/rdf-schema#" xmlns:dc="http://purl.org/dc/elements/1.1/">
			<rdf:Description about="https://iconscout.com/legal#licenses" dc:title="malawi_malawian_national_country_flag" dc:description="malawi_malawian_national_country_flag" dc:publisher="Iconscout" dc:date="2017-05-26" dc:format="image/svg+xml" dc:language="en">
				<dc:creator>
					<rdf:Bag>
						<rdf:li>Vignesh Oviyan</rdf:li>
					</rdf:Bag>
				</dc:creator>
			</rdf:Description>
		</rdf:RDF>
    </metadata></svg>
