<svg width="973" height="500" viewBox="0 0 973 500" fill="none" xmlns="http://www.w3.org/2000/svg">
<g clip-path="url(#clip0_16_231)">
<path d="M1.08265 500.051C15.3676 483.691 31.5495 469.046 53.9206 460.001C86.1742 446.955 131.295 445.547 166.72 451.54C202.145 457.533 227.879 470.928 250.968 471.106C274.058 471.283 294.503 458.238 300.142 439.204C305.78 420.165 296.616 395.138 283.222 387.559C269.828 379.98 252.199 389.849 247.62 399.546C243.035 409.242 251.495 418.757 268.947 423.869C286.393 428.98 312.831 429.685 344.204 425.981C375.576 422.278 411.882 414.172 438.89 408.231C481.424 398.875 557.481 380.867 597.366 382.586C625.917 383.822 646.012 396.513 656.235 407.086C666.458 417.664 666.812 426.125 660.11 431.941C653.413 437.757 639.665 440.928 617.107 438.993C594.549 437.053 563.172 430.006 535.326 427.361C507.479 424.717 483.154 426.479 461.3 429.828C439.446 433.177 420.055 438.112 410.364 440.579C403.9 442.224 400.821 442.388 401.128 441.072C401.588 439.098 402.503 435.151 408.39 411.532C414.277 387.914 425.132 344.624 430.565 322.975C434.183 308.545 436.369 301.376 437.123 301.469C438.248 301.608 440.505 301.891 445.3 299.989C450.095 298.087 457.424 293.995 461.798 290.12C466.167 286.244 467.58 282.574 468.073 282.718C468.567 282.857 468.145 286.809 464.758 297.172C461.376 307.534 455.029 324.316 448.332 342.928C441.635 361.541 434.584 381.988 430.282 395.598C425.98 409.204 424.428 415.973 423.657 419.71C422.881 423.447 422.881 424.151 424.505 423.94C426.124 423.73 429.367 422.599 446.569 418.512C463.772 414.421 494.933 407.374 520.384 406.526C545.836 405.678 565.577 411.039 584.609 415.901C603.646 420.769 621.974 425.138 634.932 425.148C647.89 425.157 655.473 420.807 660.336 414.67C665.198 408.538 667.344 400.619 663.2 392.642C659.057 384.666 648.623 376.627 630.008 372.818C611.397 369.009 584.604 369.436 562.329 371.903C540.049 374.37 522.286 378.883 506.914 382.055C491.546 385.226 478.574 387.061 470.818 387.416C463.063 387.77 460.524 386.639 459.254 386.074C458.408 385.697 458.103 384.969 458.339 383.89C458.694 382.27 459.398 379.027 462.076 363.936C464.754 348.85 469.41 321.916 472.864 303.371C476.318 284.826 478.574 274.674 480.054 269.951C481.534 265.227 482.239 265.931 488.303 267.555C494.368 269.174 505.788 271.714 518.971 272.701C532.154 273.687 547.1 273.122 561.697 271.503C576.288 269.879 590.53 267.201 602.659 265.299C614.784 263.397 624.796 262.266 635.301 263.042C698.079 267.675 675.282 380.857 673.078 424.008C673.04 424.745 671.559 435.731 666.941 446.515C662.285 457.394 652.604 463.244 648.752 469.041C656.407 467.163 660.254 463.33 660.321 463.972C660.565 466.377 653.567 482.556 655.416 480.572C658.027 477.77 675.253 450.481 676.355 441.968C677.15 435.841 676.455 427.668 675.933 423.797C670.347 382.448 659.828 293.421 684.182 272.207C690.74 266.496 701.739 263.818 712.239 263.042C722.745 262.266 732.757 263.397 744.881 265.299C757.006 267.201 771.247 269.884 785.844 271.503C800.435 273.122 815.381 273.687 828.569 272.701C841.752 271.714 853.172 269.174 859.237 267.555C865.302 265.931 866.006 265.227 867.486 269.951C868.966 274.674 871.223 284.826 874.677 303.371C878.13 321.916 882.787 348.85 885.464 363.936C888.142 379.022 888.847 382.265 889.201 383.89C889.437 384.969 889.132 385.697 888.286 386.074C887.017 386.639 884.478 387.765 876.722 387.416C868.966 387.061 855.994 385.231 840.626 382.055C825.259 378.883 807.491 374.37 785.211 371.903C762.931 369.436 736.143 369.014 717.533 372.818C698.922 376.627 688.489 384.661 684.34 392.642C680.196 400.619 682.343 408.538 687.205 414.67C692.067 420.802 699.655 425.157 712.608 425.148C725.566 425.138 743.894 420.764 762.931 415.901C781.968 411.039 801.705 405.678 827.156 406.526C852.607 407.374 883.769 414.421 900.971 418.512C918.173 422.604 921.416 423.73 923.035 423.94C924.655 424.151 924.655 423.447 923.883 419.71C923.107 415.973 921.555 409.204 917.258 395.598C912.957 381.992 905.91 361.545 899.208 342.928C892.511 324.316 886.164 307.534 882.782 297.172C879.4 286.809 878.974 282.857 879.467 282.718C879.96 282.579 881.369 286.244 885.742 290.12C890.111 293.995 897.445 298.087 902.24 299.989C907.036 301.891 909.292 301.613 910.418 301.469C911.168 301.376 913.354 308.545 916.976 322.975C922.403 344.62 933.263 387.909 939.15 411.532C945.038 435.151 945.953 439.098 946.413 441.072C946.719 442.388 943.641 442.224 937.177 440.579C927.481 438.112 908.094 433.177 886.241 429.828C864.387 426.479 840.061 424.717 812.215 427.361C784.368 430.006 752.996 437.058 730.433 438.993C707.875 440.933 694.127 437.757 687.43 431.941C680.733 426.125 681.083 417.664 691.305 407.086C701.528 396.508 721.619 383.818 750.174 382.586C818.648 379.626 966.863 452.771 994.906 378.509C1003.55 355.614 1004.61 315.425 989.981 287.221C975.351 259.018 945.038 242.801 909.613 228.17C874.188 213.539 833.647 200.499 821.312 177.23C808.976 153.961 820.483 112.224 853.565 100.027C966.805 58.2703 913.191 178.202 842.289 114.883C833.474 107.012 827.036 94.0669 823.836 78.7748C816.866 45.4933 821.34 21.1657 833.522 2.42903C870.317 -54.15 947.174 -40.2568 997.713 -109.464C1013.55 -131.152 1026.54 -159.552 1032.58 -195.765" stroke="#D34B44" stroke-width="3" stroke-miterlimit="22.93"/>
</g>
<defs>
<clipPath id="clip0_16_231">
<rect width="973" height="514" fill="white" transform="matrix(-1 0 0 1 973 -14)"/>
</clipPath>
</defs>
</svg>
