<?xml version="1.0" encoding="UTF-8" standalone="no"?>
<svg xmlns:dc="http://purl.org/dc/elements/1.1/" xmlns:cc="http://creativecommons.org/ns#" xmlns:rdf="http://www.w3.org/1999/02/22-rdf-syntax-ns#" xmlns:svg="http://www.w3.org/2000/svg" xmlns="http://www.w3.org/2000/svg" xmlns:xlink="http://www.w3.org/1999/xlink" xmlns:sodipodi="http://sodipodi.sourceforge.net/DTD/sodipodi-0.dtd" xmlns:inkscape="http://www.inkscape.org/namespaces/inkscape" width="512" height="512" id="svg2" version="1.1" inkscape:version="0.48.5 r" sodipodi:docname="united_states_usa_america_american_flag_country.svg">
  
  <sodipodi:namedview pagecolor="#ffffff" bordercolor="#666666" borderopacity="1" objecttolerance="10" gridtolerance="10" guidetolerance="10" inkscape:pageopacity="0" inkscape:pageshadow="2" inkscape:window-width="1366" inkscape:window-height="713" id="namedview71" showgrid="false" inkscape:zoom="0.35355339" inkscape:cx="36.604848" inkscape:cy="300.7715" inkscape:window-x="0" inkscape:window-y="26" inkscape:window-maximized="1" inkscape:current-layer="svg2"/>
  <defs id="defs4">
    <polygon id="pt" points="0,-0.5 0.16245985,0 -0.16245985,0 " transform="scale(0.0616,0.0616)" style="fill:#ffffff"/>
    <g id="star">
      <use xlink:href="#pt" transform="matrix(-0.80901699,-0.58778525,0.58778525,-0.80901699,0,0)" id="use8" x="0" y="0" width="1235" height="650"/>
      <use xlink:href="#pt" transform="matrix(0.30901699,-0.95105652,0.95105652,0.30901699,0,0)" id="use10" x="0" y="0" width="1235" height="650"/>
      <use xlink:href="#pt" id="use12" x="0" y="0" width="1235" height="650"/>
      <use xlink:href="#pt" transform="matrix(0.30901699,0.95105652,-0.95105652,0.30901699,0,0)" id="use14" x="0" y="0" width="1235" height="650"/>
      <use xlink:href="#pt" transform="matrix(-0.80901699,0.58778525,-0.58778525,-0.80901699,0,0)" id="use16" x="0" y="0" width="1235" height="650"/>
    </g>
    <g id="s5">
      <use xlink:href="#star" x="-0.252" id="use19" y="0" width="1235" height="650"/>
      <use xlink:href="#star" x="-0.126" id="use21" y="0" width="1235" height="650"/>
      <use xlink:href="#star" id="use23" x="0" y="0" width="1235" height="650"/>
      <use xlink:href="#star" x="0.126" id="use25" y="0" width="1235" height="650"/>
      <use xlink:href="#star" x="0.252" id="use27" y="0" width="1235" height="650"/>
    </g>
    <g id="s6">
      <use xlink:href="#s5" x="-0.063000001" id="use30" y="0" width="1235" height="650"/>
      <use xlink:href="#star" x="0.315" id="use32" y="0" width="1235" height="650"/>
    </g>
    <g id="x4">
      <use xlink:href="#s6" id="use35" x="0" y="0" width="1235" height="650"/>
      <use xlink:href="#s5" y="0.054000001" id="use37" x="0" width="1235" height="650"/>
      <use xlink:href="#s6" y="0.108" id="use39" x="0" width="1235" height="650"/>
      <use xlink:href="#s5" y="0.162" id="use41" x="0" width="1235" height="650"/>
    </g>
    <g id="u">
      <use xlink:href="#x4" y="-0.21600001" id="use44" x="0" width="1235" height="650"/>
      <use xlink:href="#x4" id="use46" x="0" y="0" width="1235" height="650"/>
      <use xlink:href="#s6" y="0.21600001" id="use48" x="0" width="1235" height="650"/>
    </g>
    <rect id="stripe" width="1235" height="50" x="0" y="0" style="fill:#b22234"/>
    <clipPath clipPathUnits="userSpaceOnUse" id="clipPath3045">
      <rect style="fill:#f1c40f;fill-opacity:1;stroke:none" id="rect3047" width="480" height="480" x="-868.50348" y="-178.03416" ry="48"/>
    </clipPath>
  </defs>
  <g id="g3358" transform="translate(884.5035,194.03416)" clip-path="url(#clipPath3045)">
    <g transform="translate(-637.51854,365.47231)" id="g3235">
      <g id="g3205" transform="matrix(0.997921,0,0,0.997921,-0.48021821,-0.13203008)">
        <g transform="translate(-187.13076,-122.25876)" id="g3145">
          <g id="g3123">
            <g id="g3113">
              <path d="m -43.8542,-385.24771 481,0 0,-37 -481,0 0,37 z" style="fill:#b22234;fill-opacity:1;fill-rule:nonzero;stroke:none" id="path3109" inkscape:connector-curvature="0"/>
              <path inkscape:connector-curvature="0" id="path3111" style="fill:#ffffff;fill-opacity:1;fill-rule:nonzero;stroke:none" d="m -43.8542,-348.24771 481,0 0,-37 -481,0 0,37 z"/>
            </g>
            <g transform="translate(0,74)" id="g3117">
              <path inkscape:connector-curvature="0" id="path3119" style="fill:#b22234;fill-opacity:1;fill-rule:nonzero;stroke:none" d="m -43.8542,-385.24771 481,0 0,-37 -481,0 0,37 z"/>
              <path d="m -43.8542,-348.24771 481,0 0,-37 -481,0 0,37 z" style="fill:#ffffff;fill-opacity:1;fill-rule:nonzero;stroke:none" id="path3121" inkscape:connector-curvature="0"/>
            </g>
          </g>
          <g id="g3131" transform="translate(0,148)">
            <g id="g3133">
              <path inkscape:connector-curvature="0" id="path3135" style="fill:#b22234;fill-opacity:1;fill-rule:nonzero;stroke:none" d="m -43.8542,-385.24771 481,0 0,-37 -481,0 0,37 z"/>
              <path d="m -43.8542,-348.24771 481,0 0,-37 -481,0 0,37 z" style="fill:#ffffff;fill-opacity:1;fill-rule:nonzero;stroke:none" id="path3137" inkscape:connector-curvature="0"/>
            </g>
            <g id="g3139" transform="translate(0,74)">
              <path d="m -43.8542,-385.24771 481,0 0,-37 -481,0 0,37 z" style="fill:#b22234;fill-opacity:1;fill-rule:nonzero;stroke:none" id="path3141" inkscape:connector-curvature="0"/>
              <path inkscape:connector-curvature="0" id="path3143" style="fill:#ffffff;fill-opacity:1;fill-rule:nonzero;stroke:none" d="m -43.8542,-348.24771 481,0 0,-37 -481,0 0,37 z"/>
            </g>
          </g>
        </g>
        <g transform="translate(-187.13076,173.74124)" id="g3163">
          <g id="g3165">
            <path d="m -43.8542,-385.24771 481,0 0,-37 -481,0 0,37 z" style="fill:#b22234;fill-opacity:1;fill-rule:nonzero;stroke:none" id="path3167" inkscape:connector-curvature="0"/>
            <path inkscape:connector-curvature="0" id="path3169" style="fill:#ffffff;fill-opacity:1;fill-rule:nonzero;stroke:none" d="m -43.8542,-348.24771 481,0 0,-37 -481,0 0,37 z"/>
          </g>
          <g transform="translate(0,74)" id="g3171">
            <path inkscape:connector-curvature="0" id="path3173" style="fill:#b22234;fill-opacity:1;fill-rule:nonzero;stroke:none" d="m -43.8542,-385.24771 481,0 0,-37 -481,0 0,37 z"/>
            <path d="m -43.8542,-348.24771 481,0 0,-37 -481,0 0,37 z" style="fill:#ffffff;fill-opacity:1;fill-rule:nonzero;stroke:none" id="path3175" inkscape:connector-curvature="0"/>
          </g>
        </g>
        <g id="g3177" transform="translate(-187.13076,321.74124)">
          <g id="g3179">
            <path inkscape:connector-curvature="0" id="path3181" style="fill:#b22234;fill-opacity:1;fill-rule:nonzero;stroke:none" d="m -43.8542,-385.24771 481,0 0,-37 -481,0 0,37 z"/>
          </g>
          <g id="g3185" transform="translate(0,74)"/>
        </g>
      </g>
    </g>
    <rect style="fill:#3c3b6e;fill-opacity:1;stroke:none" id="rect3233" width="259" height="259" x="-868.50348" y="-178.03416"/>
    <use height="650" width="1235" y="0" x="0" id="use69-3" transform="matrix(342.24685,0,0,460.06792,-738.39105,-48.596801)" xlink:href="#u"/>
  </g>

	<metadata>
		<rdf:RDF xmlns:rdf="http://www.w3.org/1999/02/22-rdf-syntax-ns#" xmlns:rdfs="http://www.w3.org/2000/01/rdf-schema#" xmlns:dc="http://purl.org/dc/elements/1.1/">
			<rdf:Description about="https://iconscout.com/legal#licenses" dc:title="united_states_usa_america_american_flag_country" dc:description="united_states_usa_america_american_flag_country" dc:publisher="Iconscout" dc:date="2017-05-26" dc:format="image/svg+xml" dc:language="en">
				<dc:creator>
					<rdf:Bag>
						<rdf:li>Vignesh Oviyan</rdf:li>
					</rdf:Bag>
				</dc:creator>
			</rdf:Description>
		</rdf:RDF>
    </metadata></svg>
